<svg version="1.1" id="Layer_1" xmlns="http://www.w3.org/2000/svg" xmlns:xlink="http://www.w3.org/1999/xlink" x="0px" y="0px"
	 width="100%" viewBox="0 0 225 225" enable-background="new 0 0 225 225" xml:space="preserve">
<path fill="#33B4D6" opacity="1.000000" stroke="none" 
	d="
M100.685051,1.222399 
	C109.020897,1.000000 117.041801,1.000000 125.531349,1.000000 
	C135.759064,2.427185 145.742844,2.331591 155.109833,6.261504 
	C172.381897,13.507992 187.494904,23.582251 199.946808,37.768997 
	C209.079071,48.173622 215.636581,59.934711 221.061829,72.530701 
	C224.642807,80.844795 224.748734,89.640015 225.777649,98.685226 
	C226.000000,108.687561 226.000000,118.375122 226.000000,128.531342 
	C225.076080,131.858276 225.139420,134.845047 224.865829,137.786682 
	C223.182648,155.884644 214.349243,170.869385 203.683105,184.822159 
	C192.807144,199.049408 178.718552,209.460419 162.679977,217.446045 
	C151.246475,223.138779 139.183151,225.247742 126.314148,225.777771 
	C117.645767,226.000000 109.291534,226.000000 100.468651,226.000000 
	C91.479195,224.358612 82.600281,224.933197 74.347549,221.539337 
	C66.251045,218.209702 58.027119,215.188187 51.085892,208.990768 
	C50.710949,207.986664 50.330528,207.240143 50.608002,206.684616 
	C53.918667,200.056290 57.027145,193.266876 63.852421,188.840332 
	C72.778267,189.443542 80.815857,192.909607 89.428749,192.993500 
	C91.370628,193.012421 93.312424,193.754959 95.634232,192.777130 
	C98.191147,192.381897 100.369370,192.574677 102.921753,192.413101 
	C104.045807,192.319931 104.783142,192.241837 105.854050,192.052490 
	C106.867760,192.001831 107.538269,191.994186 108.530449,191.919434 
	C109.697586,191.639038 110.518661,191.348679 111.557938,190.704788 
	C112.297668,190.390030 112.735550,190.237915 113.534271,190.052261 
	C114.372543,189.978531 114.856209,189.978226 115.709175,189.999161 
	C121.066208,189.224442 126.023193,190.456039 131.348389,190.349808 
	C132.385040,190.651672 133.000122,191.005966 133.952011,191.407455 
	C135.444595,191.707870 136.576340,192.313339 138.150360,191.779968 
	C138.957077,191.651169 139.430527,191.659561 140.268860,191.789703 
	C142.323715,192.464813 144.090607,192.456345 146.212280,192.552917 
	C155.572113,193.870895 164.256256,192.837494 173.556580,189.130905 
	C167.002228,184.702362 160.286438,184.835480 153.352783,184.252838 
	C152.756744,184.004898 152.531494,183.864517 152.041107,183.416077 
	C151.076370,182.138718 150.764801,181.009735 150.789017,179.861954 
	C150.886642,175.236450 149.145981,172.388199 144.108063,172.002930 
	C141.500793,171.803543 140.107773,169.906784 139.909683,167.307770 
	C139.698608,164.538422 139.355576,161.734695 141.067978,158.782166 
	C142.009674,157.778214 142.809128,157.367371 144.129074,157.017365 
	C155.440109,156.219421 166.323914,156.775406 177.199585,156.584274 
	C179.661438,156.541016 182.154617,156.823318 184.897491,155.832336 
	C185.638901,155.394318 186.017136,155.100632 186.551865,154.484497 
	C188.244507,149.248444 187.721863,144.233551 186.975952,139.079742 
	C186.596710,138.919220 186.418488,138.896942 185.938934,138.929962 
	C183.459732,139.870651 181.200043,140.313156 178.844391,140.329590 
	C159.414444,140.465179 139.984528,140.438263 120.554626,140.336227 
	C119.060486,140.328384 117.565514,140.220108 115.754211,139.507172 
	C112.914581,136.803162 114.821083,134.718857 116.082253,132.681931 
	C117.199829,130.876907 118.237549,128.950394 120.522484,127.631744 
	C124.089012,127.558647 126.081512,126.493332 128.037689,123.433434 
	C130.652176,119.343811 135.658081,118.327599 140.417526,118.525566 
	C145.747864,118.747269 147.668106,116.721672 147.557358,111.368851 
	C147.447662,106.066238 149.165482,101.271088 153.801086,98.026161 
	C157.664703,95.321648 157.549576,91.794212 153.738647,88.921265 
	C149.010727,85.357010 146.996597,80.503265 147.894409,74.608109 
	C148.550034,70.303154 145.852402,67.167473 141.766693,68.057594 
	C135.893585,69.337105 131.336288,66.837608 127.414398,63.112724 
	C123.651001,59.538353 121.289955,59.610645 117.566116,63.267242 
	C113.826347,66.939476 109.242348,69.196190 103.671471,68.174530 
	C99.148628,67.345093 96.384506,70.124916 97.149124,74.650398 
	C98.124290,80.422012 96.060440,85.348511 91.575775,88.611481 
	C88.312950,90.985466 87.409424,93.475098 88.124847,97.441650 
	C87.508423,100.905602 85.302254,103.055679 83.448509,105.324425 
	C78.278557,111.651794 77.394707,118.728973 79.198868,126.402161 
	C80.674210,132.676834 78.740845,136.580673 72.255585,139.513077 
	C58.315117,141.216003 57.611938,140.617065 57.593464,126.985924 
	C57.564629,105.703377 57.574718,84.420776 57.593479,63.138214 
	C57.596260,59.980869 57.530106,56.816971 58.187679,53.184341 
	C58.644753,52.061455 59.052933,51.507771 59.980526,50.731369 
	C62.133400,49.707722 63.980480,49.677574 65.798065,49.674561 
	C103.524696,49.612068 141.251602,49.367249 179.469864,49.835007 
	C180.944809,49.997036 181.908539,50.180107 183.165009,50.974945 
	C185.658081,53.395687 185.265030,56.169804 185.341125,58.763523 
	C185.578888,66.867340 185.212204,74.978470 185.619263,83.440239 
	C185.733582,84.005096 185.787476,84.212723 185.943726,84.674591 
	C186.046066,84.928825 186.313492,85.293442 186.656097,85.317055 
	C188.320084,79.610565 187.546356,73.796188 187.537308,68.031937 
	C187.527161,61.582409 188.313675,55.090126 186.787354,48.402710 
	C186.248230,47.793690 185.872101,47.506493 185.095078,47.112213 
	C182.448685,46.261433 180.101715,46.424717 177.776230,46.423820 
	C140.126373,46.409325 102.476532,46.411663 64.826683,46.417286 
	C63.660553,46.417461 62.492844,46.395283 61.328884,46.462399 
	C56.298649,46.752438 54.806572,48.191643 54.473759,53.090401 
	C54.383442,54.419777 54.417156,55.754921 54.416973,57.087616 
	C54.412819,87.074226 54.404572,117.060837 54.426613,147.047440 
	C54.428928,150.202454 54.203449,153.394302 55.589069,156.812256 
	C57.838829,159.583298 56.961845,161.930222 55.405220,164.010803 
	C49.340649,172.116714 43.131851,180.114868 36.731007,187.958252 
	C35.401680,189.587173 34.016895,191.426819 31.092644,191.289337 
	C27.822227,190.362167 25.970535,188.071091 24.279375,185.908066 
	C10.883846,168.775040 1.440773,150.043015 1.223067,127.318527 
	C1.000000,118.312439 1.000000,109.624870 1.000000,100.468658 
	C2.624418,92.069832 2.028903,83.812027 4.891868,76.042610 
	C18.058401,40.311714 42.568813,16.213285 78.679977,4.126345 
	C85.635071,1.798371 93.075729,1.846243 100.685051,1.222399 
z"/>
<path fill="#FEFFFF" opacity="1.000000" stroke="none" 
	d="
M100.531342,1.000000 
	C93.768433,3.242114 86.119293,3.748725 78.969307,6.345986 
	C34.978931,22.325659 9.296575,53.471409 1.336819,99.796204 
	C1.000000,68.236794 1.056868,36.473328 0.912551,4.710777 
	C0.898025,1.513816 1.731455,0.913046 4.773387,0.924734 
	C36.536114,1.046779 68.299492,1.000000 100.531342,1.000000 
z"/>
<path fill="#FEFFFF" opacity="1.000000" stroke="none" 
	d="
M226.000000,98.531342 
	C224.735809,93.938568 223.568176,88.850723 222.192337,83.819817 
	C210.055450,39.440224 172.006226,6.819628 126.216278,1.337095 
	C158.095444,1.000000 190.191132,1.055769 222.285950,0.913219 
	C225.474533,0.899057 226.088226,1.719884 226.076035,4.770021 
	C225.951736,35.867180 226.000000,66.965027 226.000000,98.531342 
z"/>
<path fill="#FEFFFF" opacity="1.000000" stroke="none" 
	d="
M126.468658,226.000000 
	C132.382690,224.523834 138.921249,223.524124 145.123108,221.495193 
	C189.712524,206.907730 216.294525,176.401184 225.055557,130.332428 
	C225.117279,130.007797 225.231155,129.693054 225.660339,129.186859 
	C226.000000,160.097305 225.941620,191.194885 226.087967,222.291504 
	C226.103043,225.493973 225.260925,226.086395 222.224487,226.074814 
	C190.462479,225.953583 158.699799,226.000000 126.468658,226.000000 
z"/>
<path fill="#FEFFFF" opacity="1.000000" stroke="none" 
	d="
M1.000000,127.468658 
	C3.074027,131.522598 3.096531,136.528275 4.358131,141.251785 
	C9.235406,159.512711 17.879005,175.683640 30.897945,189.878815 
	C32.660015,191.422409 32.938438,192.986023 32.804272,194.990585 
	C32.342278,201.893173 39.235649,208.133835 46.188087,207.323669 
	C47.928837,207.120804 49.676331,205.992203 51.687958,207.570160 
	C66.558205,217.120605 82.455750,222.906204 99.796310,225.663239 
	C68.237152,226.000000 36.474049,225.943298 4.711851,226.087234 
	C1.517698,226.101700 0.912563,225.272430 0.924474,222.227768 
	C1.047433,190.797989 1.000000,159.367569 1.000000,127.468658 
z"/>
<path fill="#F0F0F0" opacity="1.000000" stroke="none" 
	d="
M114.662025,137.665924 
	C136.300262,137.804184 157.528458,137.855713 178.756592,137.842957 
	C181.728806,137.841171 184.765121,137.842194 185.393051,133.676392 
	C185.596100,132.329361 187.153534,131.843048 188.844269,132.491547 
	C189.212357,133.086029 189.401917,133.376740 189.813660,133.824738 
	C190.918198,141.329773 190.276474,148.682220 190.250885,156.478470 
	C189.824631,157.177414 189.522629,157.445831 189.066376,157.984772 
	C174.245865,158.382721 159.598190,158.531265 144.493790,158.783691 
	C143.863586,159.061783 143.690140,159.236008 143.243896,159.162125 
	C141.162125,161.966888 142.325195,165.286804 142.172562,168.479080 
	C142.081024,170.393600 143.763245,170.175171 145.052948,170.301743 
	C152.963623,171.078064 152.962250,171.082199 152.976074,179.113403 
	C152.977783,180.106247 152.996201,181.099060 153.074539,182.551697 
	C153.152130,183.307434 153.162048,183.603363 152.960419,184.289490 
	C150.486465,187.151245 147.688950,185.048996 144.757690,185.597443 
	C143.435181,185.685760 142.559265,185.865463 141.221619,185.767197 
	C140.171188,185.759674 139.568024,185.768051 138.504669,185.806488 
	C127.327751,185.416855 116.610779,185.049408 105.904152,186.034805 
	C104.415245,186.171829 102.939774,186.229141 101.002876,185.892731 
	C97.797264,185.127670 95.041725,185.900146 91.841797,185.667847 
	C91.089684,185.502838 90.788612,185.437469 90.053085,185.214142 
	C89.112816,184.704102 88.658646,184.294785 88.038971,183.426575 
	C87.153091,179.762115 87.591148,176.469238 87.624016,172.767944 
	C87.845680,171.821838 88.087608,171.339050 88.686287,170.629364 
	C91.165588,168.814667 93.743919,169.798386 96.121521,169.340469 
	C97.873550,169.003036 99.208015,168.181152 99.865158,166.543839 
	C100.595345,164.724533 99.947517,163.361237 97.822861,162.379822 
	C93.679031,160.535660 89.376251,162.207047 85.231888,160.211029 
	C84.424973,159.477310 83.995987,158.944229 83.888885,158.276749 
	C83.225212,154.140747 91.424362,141.478775 95.528801,141.091736 
	C101.335938,140.544098 107.063759,140.082855 112.329781,137.275299 
	C112.891212,136.975983 113.629478,137.309494 114.662025,137.665924 
z"/>
<path fill="#BBCCD3" opacity="1.000000" stroke="none" 
	d="
M115.240417,137.500397 
	C110.098221,141.426941 104.682281,143.690414 98.356148,143.052856 
	C95.989693,142.814346 94.176918,143.566528 92.885315,145.673157 
	C90.369774,149.776016 87.757698,153.819702 85.081604,158.197296 
	C84.987022,158.745331 84.996452,158.983948 85.102844,159.566818 
	C85.220879,160.148056 85.241936,160.385040 85.197037,160.971771 
	C81.722244,167.962021 77.067223,173.808548 72.972450,180.416794 
	C71.299644,181.996552 69.651176,183.149063 68.810272,185.422882 
	C68.652077,185.960617 68.594841,186.179443 68.472687,186.737366 
	C68.239243,187.514389 68.006554,187.915878 67.464447,188.528931 
	C66.404434,189.248672 65.596901,189.718735 64.306213,189.898590 
	C60.009159,195.660172 56.060204,201.399963 52.039146,207.463684 
	C47.656067,209.370499 43.554874,211.456223 38.827671,208.366379 
	C30.075352,202.645630 29.353428,201.399445 31.090591,190.561127 
	C33.924213,189.041199 35.067230,186.286926 36.766426,184.129868 
	C43.220070,175.937180 49.537342,167.637070 56.023823,159.038055 
	C55.186569,157.125595 55.913136,155.761475 56.870045,154.611588 
	C60.469627,150.285950 63.693531,145.668747 67.285057,141.337204 
	C68.650688,139.690170 70.680870,139.361099 72.677719,138.190277 
	C76.911491,133.974762 78.252174,129.915207 76.273361,123.973068 
	C74.110840,117.479279 76.206818,110.939529 80.550163,105.369576 
	C82.476555,102.899155 84.178848,100.253990 86.100632,97.359390 
	C87.641312,93.407295 89.972946,93.418663 92.887344,95.271912 
	C98.418137,98.788910 99.255150,100.666733 97.371140,106.424026 
	C93.802956,110.275009 91.988922,114.229065 93.565987,119.211624 
	C95.438599,125.127960 99.720421,127.231300 105.496262,124.802757 
	C107.272743,124.055801 109.190567,123.356552 110.709824,121.445786 
	C111.699585,120.044479 112.819862,119.309845 113.771172,118.400520 
	C117.480202,114.855186 124.082047,115.866333 126.594505,120.330460 
	C128.366165,123.478317 127.393692,125.552666 122.403534,128.643265 
	C119.822395,131.619064 117.615562,134.423370 115.240417,137.500397 
z"/>
<path fill="#F0F1F1" opacity="1.000000" stroke="none" 
	d="
M72.496208,137.940186 
	C67.492973,144.725922 62.030655,151.488693 56.355186,158.475220 
	C53.359108,158.854813 52.041489,158.014633 52.052414,154.754578 
	C52.171871,119.105011 52.187550,83.454666 52.043308,47.805302 
	C52.027645,43.934566 53.967274,44.020920 56.672169,44.023659 
	C100.484825,44.068062 144.297516,44.068783 188.578705,44.136703 
	C189.233002,44.331551 189.418793,44.469093 189.872162,44.827187 
	C190.232773,59.484180 190.327454,73.920624 190.416504,88.357094 
	C190.425995,89.895050 190.318466,91.662239 188.676636,92.133385 
	C186.957962,92.626587 185.362411,91.991600 185.042404,89.382126 
	C184.806152,88.828133 184.657562,88.668709 184.239929,88.323540 
	C183.970901,88.137802 184.002426,87.969215 184.011993,87.883987 
	C183.829910,87.681717 183.638290,87.564667 183.201172,87.216965 
	C182.801117,75.600449 182.646530,64.214569 182.214935,52.542992 
	C181.778061,52.306293 181.618179,52.355297 181.245331,52.271824 
	C141.320786,52.098289 101.609200,52.057228 61.431053,52.084023 
	C60.812641,52.265236 60.660797,52.378593 60.346222,52.724991 
	C60.133511,80.009041 60.133648,107.060356 59.967735,134.110657 
	C59.947838,137.354691 61.221016,138.085327 64.073830,137.902786 
	C66.717125,137.733627 69.381836,137.899078 72.496208,137.940186 
z"/>
<path fill="#02FDFE" opacity="1.000000" stroke="none" 
	d="
M122.451065,128.836304 
	C122.420532,128.097641 122.831108,127.390274 123.199158,126.661423 
	C123.977814,125.119438 126.582298,123.682304 125.538582,122.250565 
	C123.970123,120.098999 121.370949,118.641479 119.061485,117.113350 
	C118.018959,116.423531 117.397858,117.620186 116.758400,118.353981 
	C115.467880,119.834900 114.114769,121.261269 112.492683,122.857498 
	C109.303062,123.423668 106.406555,123.277191 103.477020,124.139389 
	C98.994904,125.458527 96.835144,121.434052 94.210953,118.874176 
	C92.086403,116.801712 91.710304,114.238113 93.273911,111.676353 
	C94.186501,110.181198 94.205147,108.570839 94.541115,106.622368 
	C94.730362,104.241653 99.049957,102.449913 95.840698,100.608978 
	C93.072350,99.020958 91.559189,93.582985 86.475967,96.864182 
	C86.188736,94.867004 86.131516,92.703285 86.139473,90.539795 
	C86.144432,89.191406 86.200966,87.378227 87.826332,87.365456 
	C94.133987,87.315887 92.991417,81.339233 95.379929,78.207634 
	C95.902328,77.522720 95.772263,76.661743 95.307724,75.861320 
	C94.460915,74.402237 91.966507,73.249252 93.586433,71.229942 
	C95.549614,68.782753 97.966972,66.689796 100.282433,64.545746 
	C100.647858,64.207367 101.852501,64.117783 102.095207,64.402458 
	C106.074783,69.070320 109.622551,64.663086 113.306625,63.894569 
	C114.056435,63.738159 115.226265,63.150253 115.310928,62.619133 
	C116.474792,55.318069 122.137306,58.925076 125.955864,58.191753 
	C126.906746,58.009144 128.281342,58.310932 128.426712,59.413635 
	C129.163895,65.005775 134.647034,64.071953 137.761627,66.360313 
	C138.655609,67.017136 139.735199,66.856148 140.516632,66.083847 
	C145.156647,61.498062 146.614349,67.049934 149.108490,68.868134 
	C151.393951,70.534210 152.850174,72.371269 150.175797,75.385498 
	C148.231934,77.576347 152.400299,86.430733 155.595062,86.970940 
	C160.526871,87.804832 158.557831,91.468323 158.700638,94.035095 
	C158.830841,96.374863 159.932312,99.447876 155.632645,100.129158 
	C152.025818,100.700653 148.372162,109.164558 150.420532,112.021088 
	C151.892700,114.074081 151.426483,115.212624 149.895340,116.643639 
	C148.192902,118.234764 146.584076,119.925690 144.919830,121.558220 
	C144.032288,122.428841 143.214127,122.758270 141.847687,122.112099 
	C136.978714,119.809586 130.753357,121.980026 128.827072,126.746223 
	C127.528786,129.958527 124.944969,128.436996 122.451065,128.836304 
z"/>
<path fill="#02FCFE" opacity="1.000000" stroke="none" 
	d="
M196.233521,119.232468 
	C195.632889,120.801712 195.121506,121.903656 195.279388,123.379379 
	C195.681244,127.135292 193.233948,129.573242 189.632782,129.217636 
	C186.625290,128.920639 184.232742,129.724625 182.161102,132.059769 
	C179.599915,134.946716 176.784866,134.899765 174.282242,131.858398 
	C172.478867,129.666824 170.403931,128.478287 167.454117,129.057220 
	C164.003876,129.734375 161.324875,127.181099 161.681702,123.560410 
	C162.000412,120.326302 161.117371,117.874245 158.201447,116.037453 
	C155.316757,114.220337 155.381226,110.385307 158.221878,108.300056 
	C161.006088,106.256226 162.576874,104.089378 161.151764,100.376793 
	C160.292938,98.139389 164.271652,94.071259 166.412857,95.048134 
	C169.753159,96.572052 171.962814,94.966927 173.901703,92.987213 
	C176.789536,90.038536 179.371628,90.172379 182.425430,92.620735 
	C184.812943,94.534904 187.104324,96.646912 190.826859,94.959541 
	C192.854935,94.040260 196.598785,98.298180 195.790192,100.596626 
	C194.707550,103.673981 196.113251,105.922569 197.907867,107.742149 
	C201.881668,111.771187 201.963135,113.122040 197.662842,116.780785 
	C197.068924,117.286102 196.802658,118.176537 196.233521,119.232468 
z"/>
<path fill="#278FAC" opacity="1.000000" stroke="none" 
	d="
M140.794525,184.470779 
	C141.770462,184.282883 142.501602,184.234406 143.592880,184.263474 
	C146.246872,186.021500 151.246124,185.862228 148.220139,191.293091 
	C145.745377,193.099091 142.979370,192.549286 140.286896,193.726044 
	C139.522141,193.910950 139.094635,193.916855 138.346878,193.939392 
	C136.908691,193.438812 135.615952,194.531662 134.255127,193.358459 
	C133.445099,192.902084 132.925323,192.665344 132.199631,192.227783 
	C130.727325,190.087463 129.112793,189.127090 126.623749,189.296021 
	C123.156731,189.531296 119.655922,189.487106 116.180962,189.290710 
	C114.308182,189.184845 112.922440,189.456711 112.234894,191.773315 
	C111.465904,192.549393 110.923119,193.062271 110.184074,193.775757 
	C109.310486,194.575241 108.540764,194.731491 107.346313,194.210449 
	C106.281448,193.943436 105.551575,193.923645 104.456627,193.900909 
	C103.923904,193.773056 103.756256,193.648148 103.347321,193.321228 
	C102.752846,192.870285 102.360878,192.714813 101.609161,192.624054 
	C99.723076,192.942963 98.152817,193.090027 96.207031,192.877396 
	C95.640495,192.683746 95.428947,192.556702 94.974983,192.141296 
	C92.841530,186.972427 93.075584,186.616638 99.717270,184.557709 
	C112.711426,184.282867 125.376610,184.226257 138.501862,184.249359 
	C139.451141,184.649033 139.968887,184.807877 140.794525,184.470779 
z"/>
<path fill="#34ACCC" opacity="1.000000" stroke="none" 
	d="
M153.780746,183.271133 
	C161.210602,182.961731 168.251450,184.135605 175.191864,185.955597 
	C176.649536,186.337845 178.145248,187.053101 178.294083,188.808533 
	C178.434830,190.468842 177.004639,191.151413 175.745651,191.452484 
	C166.529175,193.656372 157.237885,195.275787 147.346893,194.219788 
	C146.630157,193.610184 146.454330,193.132065 146.612823,192.215683 
	C147.374237,191.409760 148.030212,191.020844 149.086487,190.622406 
	C153.317261,191.479904 157.110458,191.901154 160.381699,188.907654 
	C159.020493,185.918671 155.089432,187.504120 153.479462,184.588562 
	C153.467682,184.007355 153.511459,183.775574 153.780746,183.271133 
z"/>
<path fill="#34ACCC" opacity="1.000000" stroke="none" 
	d="
M64.263794,190.136749 
	C64.456093,189.066971 64.954086,188.213577 65.684067,187.173035 
	C66.175423,186.771118 66.428139,186.548782 66.825043,186.116745 
	C66.974976,185.913589 66.815834,185.966644 66.788803,185.887238 
	C73.149872,181.787399 80.328278,182.175690 87.714439,182.362671 
	C89.158844,184.477417 88.558769,185.684738 86.627464,186.446152 
	C85.266304,186.982758 84.080711,187.793564 82.947937,188.951660 
	C86.108170,190.770248 89.220367,191.951645 93.135796,190.569153 
	C94.249619,190.647369 94.864792,191.037613 95.733574,191.730637 
	C96.016258,191.973114 96.003738,191.995270 95.996063,192.005432 
	C96.373558,192.398941 96.524429,192.859116 96.220032,193.707153 
	C91.965843,196.352051 87.919533,194.180496 83.908752,193.943832 
	C77.337669,193.556091 70.792236,192.747940 64.263794,190.136749 
z"/>
<path fill="#237F99" opacity="1.000000" stroke="none" 
	d="
M112.334778,192.043274 
	C111.329079,189.484055 108.551277,190.541946 106.949913,189.096848 
	C107.965477,186.763245 110.114662,187.067993 111.952141,187.044281 
	C118.251968,186.962921 124.553856,186.965485 130.853958,187.031784 
	C132.603989,187.050201 135.167557,186.345215 135.792267,188.282532 
	C136.588242,190.751022 132.741653,189.477768 132.128845,191.715912 
	C126.681427,193.915131 121.128548,190.956131 115.406982,192.847229 
	C114.818558,192.732254 114.638695,192.600006 114.211990,192.241486 
	C113.530373,192.026825 113.095619,192.038437 112.334778,192.043274 
z"/>
<path fill="#2DA3C2" opacity="1.000000" stroke="none" 
	d="
M147.209854,191.806747 
	C147.007843,192.503494 147.006592,192.935776 147.003281,193.692596 
	C144.945297,194.000137 142.889389,193.983154 140.391556,193.935608 
	C141.538925,191.815140 143.922409,191.496582 146.627930,191.049652 
	C147.134109,191.196503 147.272354,191.369385 147.209854,191.806747 
z"/>
<path fill="#2DA3C2" opacity="1.000000" stroke="none" 
	d="
M96.445641,194.015564 
	C95.996346,193.572968 95.993607,193.127716 95.989632,192.349030 
	C97.734871,191.744659 99.481339,191.473740 101.597626,191.129608 
	C102.489937,191.521896 102.999382,192.001526 103.767227,192.717026 
	C104.025002,192.953552 104.061714,193.426620 104.076637,193.662292 
	C101.691772,193.936279 99.291985,193.974609 96.445641,194.015564 
z"/>
<path fill="#34ACCC" opacity="1.000000" stroke="none" 
	d="
M134.007904,193.444122 
	C135.122055,193.283051 136.279251,193.427277 137.731537,193.763763 
	C136.640900,195.051422 135.201706,197.175568 134.007904,193.444122 
z"/>
<path fill="#34ACCC" opacity="1.000000" stroke="none" 
	d="
M107.111176,194.240891 
	C107.755638,193.958237 108.499954,193.953278 109.616043,193.962341 
	C109.333138,195.544495 108.535179,196.378906 107.111176,194.240891 
z"/>
<path fill="#FFF6F3" opacity="1.000000" stroke="none" 
	d="
M182.987183,87.258682 
	C183.209534,87.143883 183.454117,87.314667 183.855499,87.648720 
	C183.687256,87.709526 183.352966,87.620285 182.987183,87.258682 
z"/>
<path fill="#1FADD3" opacity="1.000000" stroke="none" 
	d="
M181.133163,52.213776 
	C181.032364,52.139347 181.500763,52.078300 181.719345,52.167793 
	C181.937927,52.257290 181.584320,52.370045 181.584320,52.370045 
	C181.584320,52.370045 181.233963,52.288204 181.133163,52.213776 
z"/>
<path fill="#278FAC" opacity="1.000000" stroke="none" 
	d="
M114.106659,192.192612 
	C114.237595,192.148529 114.483192,192.320267 114.850174,192.697464 
	C114.713120,192.753143 114.463036,192.588318 114.106659,192.192612 
z"/>
<path fill="#20AED3" opacity="1.000000" stroke="none" 
	d="
M184.118256,88.297836 
	C184.288620,88.241951 184.606339,88.346107 184.939407,88.718918 
	C184.708023,88.833153 184.478317,88.656593 184.118256,88.297836 
z"/>
<path fill="#FAF4F2" opacity="1.000000" stroke="none" 
	d="
M189.961533,133.726562 
	C189.781174,133.738953 189.556976,133.476028 189.193085,132.994247 
	C189.341492,133.000671 189.629593,133.225952 189.961533,133.726562 
z"/>
<path fill="#1FADD3" opacity="1.000000" stroke="none" 
	d="
M60.328117,52.838200 
	C60.048641,52.597740 60.151112,52.327393 60.727692,52.149437 
	C60.820835,52.358299 60.656925,52.547127 60.328117,52.838200 
z"/>
<path fill="#25AFD4" opacity="1.000000" stroke="none" 
	d="
M153.790192,182.999329 
	C154.005386,183.166336 154.004517,183.334183 153.493347,183.740036 
	C152.983078,183.978043 153.027206,183.489014 153.084717,183.250275 
	C153.142212,183.011520 153.574142,183.000153 153.790192,182.999329 
z"/>
<path fill="#25AFD4" opacity="1.000000" stroke="none" 
	d="
M143.098511,158.989227 
	C143.147766,158.870789 143.324463,158.827560 143.769104,158.835968 
	C144.037048,158.887573 143.650925,159.093277 143.650925,159.093277 
	C143.650925,159.093277 143.225922,159.064438 143.098511,158.989227 
z"/>
<path fill="#FCF4F2" opacity="1.000000" stroke="none" 
	d="
M190.109314,44.769005 
	C189.877686,44.883472 189.626007,44.704597 189.215973,44.352562 
	C189.391113,44.292767 189.735016,44.391525 190.109314,44.769005 
z"/>
<path fill="#FAF4F2" opacity="1.000000" stroke="none" 
	d="
M189.239197,158.184845 
	C189.160965,157.933762 189.428406,157.633331 189.922089,157.133270 
	C189.960510,157.334244 189.772690,157.734879 189.239197,158.184845 
z"/>
<path fill="#33B4D6" opacity="1.000000" stroke="none" 
	d="
M70.698669,180.045990 
	C74.985085,173.200012 79.117630,166.780029 83.507767,160.154327 
	C84.075134,159.792603 84.366150,159.607437 84.813614,159.199921 
	C84.991661,159.011139 85.023491,158.757889 85.000549,158.632294 
	C89.679626,158.556717 94.381645,158.606720 99.543770,158.741760 
	C100.487923,159.504669 100.821289,160.231781 100.923325,161.078201 
	C101.894875,169.137497 101.347900,169.787231 93.351326,170.006668 
	C92.204247,170.038132 91.038643,169.946503 89.627258,170.805420 
	C87.420677,172.242386 87.444969,174.178635 87.452606,175.955139 
	C87.456764,176.923889 87.549141,177.939163 87.461441,178.890656 
	C87.130310,182.483521 84.016479,183.508102 81.662735,182.784729 
	C77.983727,181.654037 72.682457,188.125687 70.698669,180.045990 
z"/>
<path fill="#2DA3C2" opacity="1.000000" stroke="none" 
	d="
M93.179276,191.734497 
	C88.392708,193.955170 84.020477,191.836533 79.578499,191.121750 
	C78.476440,190.944412 77.450699,190.000107 77.515480,188.658707 
	C77.593773,187.037659 78.939018,186.583115 80.234375,186.239243 
	C82.613327,185.607697 85.006599,185.030090 87.705978,184.231491 
	C88.123253,183.867844 88.228447,183.702713 88.626381,183.513779 
	C89.112595,183.520111 89.306061,183.550232 89.740372,183.748444 
	C90.155167,183.985107 90.329102,184.053711 90.762589,184.228546 
	C92.721504,186.395035 92.279800,189.155746 93.179276,191.734497 
z"/>
<path fill="#34B5D6" opacity="1.000000" stroke="none" 
	d="
M89.229355,183.763107 
	C89.008606,183.988739 88.513298,184.015518 88.265671,184.024261 
	C83.074295,182.739578 78.315140,184.387543 73.491020,184.960785 
	C71.526749,185.194214 69.575935,185.540833 67.190384,185.821899 
	C67.949493,183.892319 69.137215,181.976791 70.588737,179.840622 
	C71.513084,182.522491 73.447487,183.202286 76.124832,182.711075 
	C77.754486,182.412064 79.408485,182.019379 81.046814,182.040283 
	C84.704521,182.086945 86.123276,180.315063 86.023468,176.808777 
	C85.963112,174.688583 85.705055,172.366684 88.633942,171.567444 
	C89.038399,175.353363 88.989571,178.731277 89.015549,182.563965 
	C89.210266,183.191635 89.330185,183.364548 89.229355,183.763107 
z"/>
<path fill="#2A9AB8" opacity="1.000000" stroke="none" 
	d="
M147.382751,192.059204 
	C147.006088,191.896545 147.003067,191.721863 146.997955,191.285400 
	C149.457535,187.352036 144.503876,187.265579 144.015808,184.665375 
	C146.665085,184.262466 149.377167,184.183914 152.536163,184.041702 
	C152.983078,183.978043 153.038300,184.067276 153.077255,184.102417 
	C153.387497,184.543457 153.634674,184.993164 154.042282,185.259766 
	C155.694717,186.340546 158.523590,186.634201 157.605667,189.579224 
	C156.818680,192.104141 154.403717,191.931641 152.284195,191.995926 
	C151.796417,192.010727 151.308014,192.006409 150.410034,192.023254 
	C149.252243,192.038239 148.504333,192.042709 147.382751,192.059204 
z"/>
<path fill="#2A9AB8" opacity="1.000000" stroke="none" 
	d="
M93.391487,192.037445 
	C92.881584,191.947662 92.758736,191.820984 92.609085,191.758438 
	C86.794235,189.328339 86.793915,189.329102 90.961075,184.660095 
	C93.731964,184.279358 96.441788,184.223923 99.598923,184.253983 
	C99.863487,185.743698 99.177269,186.710373 97.710213,186.955200 
	C94.821297,187.437332 95.302284,189.338211 95.943291,191.627808 
	C95.266182,191.992233 94.516113,192.011353 93.391487,192.037445 
z"/>
<path fill="#34B5D6" opacity="1.000000" stroke="none" 
	d="
M88.891907,170.897202 
	C89.912285,168.909973 91.808678,168.812744 93.579239,169.047531 
	C99.013687,169.768173 100.659256,167.135880 100.015739,162.211655 
	C99.910591,161.407043 100.002365,160.576660 100.003494,159.292496 
	C103.561378,161.630096 101.722900,165.512085 101.452385,168.725174 
	C101.204506,171.669525 97.920876,170.004822 95.992447,170.303009 
	C94.365990,170.554504 92.676277,170.396866 90.577652,170.520584 
	C89.996986,170.856445 89.853218,171.092072 89.333817,171.153610 
	C88.958168,170.979523 88.914062,170.924591 88.891907,170.897202 
z"/>
<path fill="#2A9AB8" opacity="1.000000" stroke="none" 
	d="
M140.696396,184.249176 
	C140.913132,185.044342 140.971283,185.967972 140.036697,186.088547 
	C139.308960,186.182449 139.170868,185.434525 138.994934,184.592300 
	C139.425766,184.275055 139.889633,184.221024 140.696396,184.249176 
z"/>
<path fill="#FCF4F2" opacity="1.000000" stroke="none" 
	d="
M89.255112,184.015808 
	C89.008606,183.988739 88.981651,183.498001 89.035995,183.258362 
	C89.315651,183.189621 89.522835,183.380234 89.846558,183.753540 
	C89.981224,183.916519 89.501617,184.042892 89.255112,184.015808 
z"/>
<path fill="#FCF4F2" opacity="1.000000" stroke="none" 
	d="
M88.963654,171.231964 
	C89.133286,170.848007 89.308395,170.716507 89.812126,170.602905 
	C89.919731,170.932938 89.698723,171.245056 89.282471,171.766296 
	C89.047867,171.811768 89.008499,171.648102 88.963654,171.231964 
z"/>
<path fill="#33B5D6" opacity="1.000000" stroke="none" 
	d="
M94.373627,106.489922 
	C95.387482,108.397079 96.657066,110.499611 94.268959,112.534790 
	C93.050758,113.572968 93.167114,114.826729 94.310883,115.960548 
	C96.301117,117.933487 98.274231,119.923866 100.278664,121.882225 
	C101.071236,122.656570 102.160538,122.983070 102.918777,122.126831 
	C106.058784,118.580963 108.817047,121.097145 111.932236,122.766525 
	C111.999283,123.267937 111.842941,123.582100 111.595840,123.786598 
	C105.948219,128.460541 99.225128,129.679352 95.182358,126.777054 
	C90.936211,123.728760 89.924713,117.480255 92.562607,110.346581 
	C93.020813,109.107437 93.627090,107.923042 94.373627,106.489922 
z"/>
<path fill="#33B4D6" opacity="1.000000" stroke="none" 
	d="
M49.262405,198.312759 
	C45.433632,200.531448 42.365952,199.856125 40.536804,196.303314 
	C38.960915,193.242401 39.900642,190.333145 42.984386,188.619949 
	C45.389198,187.283936 47.959152,187.572556 49.852497,189.651398 
	C52.393448,192.441330 52.165501,195.358810 49.262405,198.312759 
z"/>
<path fill="#34B5D6" opacity="1.000000" stroke="none" 
	d="
M66.714859,185.989639 
	C66.751175,186.163467 66.527374,186.413330 66.109818,186.824539 
	C66.095627,186.679153 66.275177,186.372421 66.714859,185.989639 
z"/>
<path fill="#34B5D6" opacity="1.000000" stroke="none" 
	d="
M84.724396,159.066559 
	C84.732254,159.236847 84.472839,159.462570 83.989395,159.818451 
	C83.995949,159.673065 84.226547,159.397507 84.724396,159.066559 
z"/>
<path fill="#33B4D6" opacity="1.000000" stroke="none" 
	d="
M107.154144,108.846237 
	C98.250694,98.855591 98.474052,86.395012 107.450722,77.747993 
	C115.992462,69.519936 129.486435,69.597176 138.181137,77.923897 
	C146.440552,85.833748 146.717789,99.684578 138.786362,108.160645 
	C130.427109,117.093895 117.133759,117.492294 107.154144,108.846237 
z"/>
<path fill="#33B4D6" opacity="1.000000" stroke="none" 
	d="
M166.053925,116.667160 
	C164.011612,108.535629 167.400055,101.969772 174.534119,99.636597 
	C181.448959,97.375137 188.591980,100.846603 191.090698,107.682961 
	C193.439728,114.109810 190.595490,121.190155 184.497742,124.095268 
	C177.557571,127.401726 170.113663,124.535675 166.053925,116.667160 
z"/>
<path fill="#2A9AB8" opacity="1.000000" stroke="none" 
	d="
M103.916946,192.677032 
	C103.413521,192.503677 102.802032,192.053818 102.078995,191.330185 
	C102.581245,191.504456 103.195068,191.952484 103.916946,192.677032 
z"/>
<path fill="#2DA3C2" opacity="1.000000" stroke="none" 
	d="
M150.335144,192.230667 
	C150.272507,191.861847 150.523376,191.622345 150.820343,191.527969 
	C156.989960,189.567245 156.990997,189.570496 153.175201,184.449615 
	C153.116211,184.137558 153.558395,184.061401 153.781036,184.033478 
	C157.181381,184.801224 160.371368,185.551880 163.530609,186.415039 
	C164.761978,186.751495 166.351547,187.005859 166.432632,188.648788 
	C166.514832,190.314941 165.059662,190.787857 163.743317,191.018311 
	C159.419342,191.775269 155.230347,193.859589 150.335144,192.230667 
z"/>
<path fill="#EEF0F0" opacity="1.000000" stroke="none" 
	d="
M139.001434,91.379219 
	C139.503647,98.974640 136.695923,104.499443 130.403259,107.942024 
	C124.504189,111.169289 118.544060,110.770378 112.937439,107.069626 
	C107.225578,103.299400 104.427689,96.325012 106.142471,89.600220 
	C107.857895,82.872917 112.430992,78.741737 119.130867,77.217628 
	C125.709930,75.721001 132.836258,78.858406 136.452164,84.507271 
	C137.718750,86.485985 138.615051,88.617371 139.001434,91.379219 
z"/>
<path fill="#EAEFF0" opacity="1.000000" stroke="none" 
	d="
M178.141953,102.078697 
	C185.753464,103.436104 189.697998,108.012077 188.639252,113.779709 
	C187.610367,119.384628 182.688217,122.874413 176.894180,122.106949 
	C172.190292,121.483879 168.418396,117.318222 168.231842,112.540291 
	C168.034058,107.474800 171.313705,103.874992 178.141953,102.078697 
z"/>
<path fill="#34B5D6" opacity="1.000000" stroke="none" 
	d="
M121.353714,104.530426 
	C114.185852,102.651100 110.358803,97.902321 111.108276,92.224663 
	C111.812096,86.892838 116.549683,82.568459 121.969627,82.310623 
	C127.522346,82.046486 132.604584,86.213417 133.613602,91.857529 
	C134.796066,98.471809 129.918533,103.697388 121.353714,104.530426 
z"/>
<path fill="#32B3D5" opacity="1.000000" stroke="none" 
	d="
M173.122559,108.233307 
	C175.858795,105.274185 178.842148,104.882759 181.907684,106.495171 
	C184.458511,107.836861 185.514542,110.209602 185.169266,113.147476 
	C184.816864,116.145920 182.995407,117.902679 180.280197,118.724670 
	C177.684036,119.510635 175.289398,118.729843 173.527252,116.769966 
	C171.300339,114.293137 171.193161,111.450600 173.122559,108.233307 
z"/>
<path fill="#02FCFE" opacity="1.000000" stroke="none" 
	d="
M123.725372,98.940773 
	C119.073654,99.262932 116.489113,97.393478 116.505539,93.027328 
	C116.518494,89.585388 120.049492,87.329536 123.741966,88.023529 
	C126.136948,88.473671 127.658516,89.850021 127.985649,92.291382 
	C128.408920,95.450317 127.477287,97.899834 123.725372,98.940773 
z"/>
<path fill="#02FCFE" opacity="1.000000" stroke="none" 
	d="
M178.121704,109.049728 
	C180.655579,109.140228 181.987778,110.154282 181.839249,112.429878 
	C181.714539,114.340645 180.479477,115.461075 178.642532,115.647591 
	C177.195679,115.794487 175.999237,114.920174 175.485397,113.645088 
	C174.590729,111.424873 175.276138,109.759323 178.121704,109.049728 
z"/>
</svg>