<svg version="1.1" id="Layer_1" xmlns="http://www.w3.org/2000/svg" xmlns:xlink="http://www.w3.org/1999/xlink" x="0px" y="0px"
	 width="100%" viewBox="0 0 287 287" enable-background="new 0 0 287 287" xml:space="preserve">
<path fill="#EBECEC" opacity="1.000000" stroke="none" 
	d="
M1.242638,164.289398 
	C1.000000,151.645767 1.000000,139.291550 1.000000,126.468658 
	C2.937155,123.696068 1.822174,120.858551 2.284884,118.293480 
	C6.602953,94.355896 16.483137,72.976227 31.659472,54.043137 
	C52.978104,27.447273 80.634659,10.971564 113.611870,3.088508 
	C117.494652,2.160347 121.543449,2.466357 125.709114,1.242900 
	C138.020889,1.000000 150.041794,1.000000 162.531342,1.000000 
	C164.807922,2.727108 167.145020,1.881965 169.218948,2.197436 
	C191.067032,5.520803 210.886902,13.934221 228.673584,26.801949 
	C258.625244,48.470367 277.863159,77.411438 285.997467,113.604660 
	C286.728088,116.855469 286.678986,120.200768 287.757233,123.709885 
	C288.000000,137.354233 288.000000,150.708450 288.000000,164.531342 
	C286.271515,166.805862 287.166931,169.142776 286.793793,171.214447 
	C282.136322,197.073425 271.044556,219.825027 253.903244,239.672852 
	C243.365509,251.874451 231.041641,261.934662 217.136810,270.056702 
	C201.446701,279.221558 184.698486,285.364929 166.289368,287.757385 
	C151.979111,288.000000 137.958206,288.000000 123.468658,288.000000 
	C122.258102,287.211517 121.283424,287.134430 120.276787,286.989105 
	C91.524872,282.839081 67.022079,270.037109 45.837406,250.447052 
	C25.516151,231.655441 12.049702,208.760696 4.619992,182.178253 
	C3.003232,176.393707 2.467791,170.455444 1.242638,164.289398 
z"/>
<path fill="#FFFFFF" opacity="1.000000" stroke="none" 
	d="
M125.531342,1.000000 
	C124.442604,4.699894 120.753082,3.289255 118.205551,3.778683 
	C93.364159,8.551176 71.476128,19.130783 52.030090,35.321861 
	C36.550644,48.210285 24.663134,63.786659 15.822142,81.651291 
	C9.253628,94.924019 4.571320,108.948952 2.971500,123.821785 
	C2.877108,124.699303 2.612110,125.428490 1.378169,125.910889 
	C1.000000,85.570992 1.044992,45.141830 0.913624,4.713245 
	C0.903241,1.517931 1.729148,0.916764 4.774099,0.925286 
	C44.870049,1.037500 84.966415,1.000000 125.531342,1.000000 
z"/>
<path fill="#FFFFFF" opacity="1.000000" stroke="none" 
	d="
M288.000000,123.531342 
	C284.490448,121.057709 285.167694,116.587479 284.277710,112.837708 
	C274.622101,72.154282 251.679169,41.434769 215.689636,20.331842 
	C200.016785,11.141867 183.159058,5.400398 165.164001,2.975989 
	C164.289093,2.858117 163.556595,2.613868 163.085510,1.375342 
	C203.428436,1.000000 243.857010,1.044763 284.285034,0.913951 
	C287.475922,0.903626 288.083862,1.723001 288.075104,4.772283 
	C287.961639,44.202160 288.000000,83.632477 288.000000,123.531342 
z"/>
<path fill="#FFFFFF" opacity="1.000000" stroke="none" 
	d="
M1.000000,164.468658 
	C2.771425,164.197067 2.821906,165.483475 3.027349,166.882858 
	C6.548339,190.866272 15.830561,212.556870 30.543833,231.646759 
	C47.521450,253.674561 69.137108,269.764038 95.458420,279.352875 
	C103.750000,282.373505 112.197624,284.551208 120.863579,286.012573 
	C121.732483,286.159119 122.464699,286.390900 122.919243,287.629639 
	C83.570358,288.000000 44.140564,287.953674 4.711376,288.086792 
	C1.511690,288.097595 0.917052,287.264771 0.925614,284.224243 
	C1.037576,244.462189 1.000000,204.699692 1.000000,164.468658 
z"/>
<path fill="#FFFFFF" opacity="1.000000" stroke="none" 
	d="
M166.468658,288.000000 
	C168.942154,284.491272 173.413849,285.137085 177.163025,284.287140 
	C201.570557,278.754150 222.603104,267.178680 241.147858,250.488419 
	C254.422058,238.541611 264.971710,224.586868 272.915710,208.787979 
	C279.340729,196.010071 283.825226,182.409088 285.979431,168.161469 
	C286.150269,167.031586 285.890625,165.772232 287.626068,165.085510 
	C288.000000,204.762085 287.954437,244.524323 288.086273,284.285980 
	C288.096863,287.479004 287.274048,288.083801 284.226929,288.074951 
	C245.130646,287.961456 206.033920,288.000000 166.468658,288.000000 
z"/>
<path fill="#454B55" opacity="1.000000" stroke="none" 
	d="
M215.794098,190.959442 
	C219.036652,191.341995 219.083374,189.594604 219.081116,187.577148 
	C219.051651,161.257294 219.029572,134.937317 219.110428,108.617676 
	C219.118652,105.940025 218.167236,105.213066 215.625488,105.251816 
	C207.494370,105.375763 199.360184,105.297844 191.114365,105.297844 
	C193.604004,96.761909 195.735703,95.102966 203.814255,95.103241 
	C210.310928,95.103462 216.809952,95.210587 223.303482,95.068062 
	C227.687012,94.971855 229.757111,96.773186 229.750381,101.251144 
	C229.703354,132.568405 229.706238,163.885803 229.746445,195.203064 
	C229.751709,199.301086 228.187958,201.272217 223.825912,201.266556 
	C171.519409,201.198700 119.212746,201.203827 66.906212,201.262222 
	C62.712612,201.266907 60.872086,199.676025 60.882919,195.363052 
	C60.962025,163.879333 60.952785,132.395294 60.894081,100.911484 
	C60.886608,96.905380 62.623997,95.056969 66.571785,95.098854 
	C69.903030,95.134209 73.253113,95.322975 76.562050,95.048424 
	C80.810844,94.695877 83.174919,95.552788 84.659706,100.384735 
	C86.092041,105.045982 85.281754,105.477623 81.012894,105.376930 
	C71.459267,105.151588 71.455032,105.329491 71.455070,114.646927 
	C71.455154,138.468094 71.547920,162.289963 71.364388,186.109711 
	C71.333733,190.088394 72.511101,191.055939 76.384697,191.045013 
	C122.693985,190.914429 169.003769,190.960602 215.794098,190.959442 
z"/>
<path fill="#11AB93" opacity="1.000000" stroke="none" 
	d="
M161.080109,104.078659 
	C165.187027,99.451942 170.920013,96.396019 171.164459,89.453850 
	C171.192307,88.663101 172.673355,87.812904 173.610931,87.184914 
	C176.791275,85.054718 180.324280,83.347939 183.174332,80.853111 
	C186.980988,77.520935 189.343140,78.918823 192.111847,82.126915 
	C193.638733,83.896103 193.625183,85.041580 192.413147,86.822830 
	C189.792389,90.674332 187.382492,94.668655 184.820328,98.561089 
	C184.111862,99.637405 183.521606,101.122696 181.962433,101.102936 
	C176.575317,101.034706 173.826981,105.060852 170.565765,108.287086 
	C166.184509,112.621338 161.937012,117.096062 157.442001,121.307602 
	C155.514847,123.113220 155.565659,124.197289 157.452087,125.968628 
	C161.699799,129.957214 165.832611,134.080902 169.811401,138.337311 
	C171.600754,140.251511 173.235977,140.619186 175.858658,140.193954 
	C190.147079,137.877274 201.891586,149.015579 199.740494,162.643295 
	C199.523270,164.019348 199.676620,165.971313 198.156464,166.510986 
	C196.745377,167.011917 195.985291,165.268524 195.065048,164.393112 
	C192.772766,162.212509 190.418640,160.065826 188.378662,157.660187 
	C186.492508,155.435928 184.609558,155.155228 181.850998,155.948746 
	C174.744415,157.993073 173.218292,159.707977 172.365219,167.156525 
	C172.170837,168.853821 173.038849,169.612640 173.958008,170.510971 
	C176.680222,173.171555 179.444901,175.788712 182.403748,178.624878 
	C176.218506,180.983475 168.127106,177.860611 163.775330,171.993820 
	C160.069595,166.997986 159.012833,161.353546 160.267532,155.411896 
	C160.750580,153.124466 160.391724,151.739731 158.755478,150.201538 
	C155.237686,146.894547 151.762619,143.521790 148.522552,139.947098 
	C146.503357,137.719345 145.268402,138.189117 143.376053,140.109161 
	C132.736481,150.904465 122.009949,161.614914 111.238235,172.278702 
	C107.030045,176.444717 102.070061,176.355331 98.613037,172.296814 
	C95.669594,168.841248 96.022728,164.529922 99.789154,160.733917 
	C110.230461,150.210602 120.648918,139.661285 131.282150,129.334091 
	C133.924179,126.768105 134.367538,125.145851 131.321060,122.735107 
	C128.985718,120.887115 126.936768,118.639832 124.940048,116.409355 
	C121.222267,112.256325 117.738113,109.743286 111.088608,110.514854 
	C98.796257,111.941200 88.920586,99.873375 90.891945,87.736473 
	C91.278992,85.353561 91.929245,84.599167 93.861885,86.554100 
	C94.681595,87.383270 95.703354,88.082649 96.305367,89.045944 
	C100.941772,96.464729 107.241653,96.107689 114.260773,93.143394 
	C117.644035,91.714592 120.756935,80.257973 118.199699,77.635376 
	C116.250671,75.636536 113.992485,73.939156 111.218956,71.543793 
	C123.136566,70.636597 132.717712,82.089706 130.543610,93.574730 
	C129.849274,97.242645 130.665741,99.420250 133.241272,101.779503 
	C137.535950,105.713539 141.644348,109.869148 145.608246,114.138435 
	C147.582565,116.264862 148.834549,116.782433 150.998383,114.276680 
	C154.038559,110.756096 157.530945,107.626007 161.080109,104.078659 
z"/>
<path fill="#444B54" opacity="1.000000" stroke="none" 
	d="
M139.000000,219.002426 
	C111.000099,219.002335 83.500175,219.021362 56.000317,218.988922 
	C48.992546,218.980652 44.991779,215.072083 45.120201,208.821701 
	C45.163139,206.732010 45.745148,205.850266 47.955856,205.855896 
	C69.455605,205.910721 91.199875,203.891083 112.384491,206.476852 
	C132.295547,208.907181 152.231262,209.437973 171.642090,207.538162 
	C194.359131,205.314743 216.893433,207.167892 239.464172,205.942017 
	C241.293488,205.842682 244.027542,204.819870 244.878662,206.910934 
	C245.855331,209.310425 245.471054,212.179825 243.931396,214.586441 
	C241.595627,218.237457 238.096085,219.050476 233.999603,219.041260 
	C202.499878,218.970322 170.999893,219.002365 139.000000,219.002426 
z"/>
<path fill="#4D535D" opacity="1.000000" stroke="none" 
	d="
M148.119019,104.916473 
	C144.850311,101.948700 141.924988,99.074409 138.306961,95.519508 
	C145.263397,95.519508 151.308655,95.519508 157.754196,95.519508 
	C154.544144,98.798187 151.503281,101.904076 148.119019,104.916473 
z"/>
</svg>